<svg width="30" height="35" viewBox="0 0 30 35" fill="none" xmlns="http://www.w3.org/2000/svg">
<path fill-rule="evenodd" clip-rule="evenodd" d="M10.7097 31.0263L18.6284 31.0122C18.6812 31.2857 18.6846 33.6828 18.6153 33.8644L10.7227 33.8723C10.663 33.7063 10.6624 31.2654 10.7097 31.0263ZM16.892 23.1269L12.4445 23.1273C12.3817 23.0697 12.3861 23.0874 12.3871 22.9073C12.3913 22.1361 12.3519 19.4832 12.4067 19.1775C12.5952 19.1322 16.7422 19.1322 16.9317 19.1775C16.9704 19.378 16.9689 22.2808 16.9506 22.945C16.9449 23.1533 16.9364 23.101 16.892 23.1269ZM13.2372 18.0482C12.9297 18.0482 11.7408 18.0614 11.5271 17.9713C11.4319 17.9311 11.3637 17.8598 11.3225 17.7394C11.3194 17.7304 11.3164 17.7209 11.3137 17.7114C11.3108 17.7015 11.3083 17.6922 11.3058 17.6817C11.1205 16.9163 11.7232 16.9527 12.1241 16.9416L17.0923 16.9322C17.3194 16.9377 17.7279 16.9417 17.869 17.0266C18.0463 17.1332 18.0975 17.4525 18.0259 17.7043C17.9056 18.1279 17.2233 18.0392 16.6149 18.0447L13.2372 18.0482V18.0482ZM3.37484 15.2436C3.76688 15.1804 11.0317 15.266 11.0539 15.276L11.13 15.4266C11.2489 15.89 11.0996 15.9731 10.778 16.2979C10.5501 16.5281 10.2641 16.7852 10.176 17.1934C9.99 18.0544 10.666 18.6581 11.2703 19.0679C11.341 20.4695 11.2308 21.9574 11.305 23.3496C11.3148 23.5341 11.3879 23.5623 11.4948 23.6941C11.5784 23.7971 11.6247 23.8792 11.7496 23.9896C11.9418 24.1595 12.2367 24.2133 12.5502 24.2385C13.3294 24.3013 15.5684 24.2623 16.585 24.243L16.7772 24.238C17.1114 24.2129 17.4192 24.1455 17.6098 23.9742C17.7437 23.8539 18.0199 23.5471 18.0289 23.3496C18.0933 21.9456 17.9988 20.4744 18.0674 19.0674C18.2441 18.9433 18.3664 18.8921 18.5187 18.7522C18.9126 18.3906 19.3007 17.7985 19.1523 17.1728C18.9403 16.2793 18.0766 16.237 18.1855 15.5496C18.2366 15.2268 18.2471 15.3202 18.2845 15.2917C18.3978 15.2057 20.034 15.2489 20.1761 15.2483C20.9005 15.2452 25.6766 15.1938 25.9681 15.2426L25.9625 27.6459L3.37001 27.6317L3.37484 15.2436ZM27.0418 14.1026L18.4415 14.0931L18.6342 12.9936C18.9526 12.9222 25.2772 12.9938 26.1605 13.003C26.5454 13.007 27.5523 12.9401 27.8317 13.1989C27.9178 13.2787 28.0485 13.419 28.1063 13.5427C28.2962 13.9491 28.2349 26.3826 28.1726 28.4512C28.1465 29.3143 28.2101 29.7998 27.078 29.8522C26.2917 29.8886 25.4484 29.8916 24.6568 29.8943L4.64612 29.894C3.87416 29.8915 2.97466 29.908 2.22845 29.8536C1.08566 29.7702 1.18624 29.2709 1.16584 28.4131C1.12662 26.7633 1.13736 25.0718 1.14825 23.42C1.15683 22.1207 1.04581 13.9855 1.25274 13.4893C1.30174 13.3718 1.45054 13.2023 1.53846 13.1524C2.00585 12.8868 5.16933 12.968 5.71083 12.9679C7.3657 12.9676 9.04304 12.941 10.7083 12.967L10.8983 14.0977L2.29626 14.0983C2.23409 14.3853 2.27793 20.894 2.27463 21.4007C2.25884 23.8408 2.25764 26.3037 2.27622 28.7435L27.0592 28.7544C27.1222 26.4934 27.0506 23.7718 27.061 21.4375L27.0609 15.9303C27.0603 15.4949 27.1157 14.4687 27.0418 14.1026V14.1026ZM14.435 9.62798C15.247 9.29001 15.5116 10.4564 14.9217 10.672C14.3059 10.8969 14.1309 10.337 14.1308 10.3366L14.1433 9.89273C14.2054 9.70833 14.2778 9.69342 14.435 9.62798ZM12.3053 15.7263C12.2917 15.6608 12.288 15.6098 12.277 15.5427C12.2666 15.4796 12.2535 15.4103 12.2423 15.3459L11.4834 10.7836C11.4449 10.5278 11.4059 10.3409 11.3771 10.0912C11.3246 9.63623 11.7002 9.25922 11.9075 8.98279C12.153 8.65526 12.3776 8.36959 12.627 8.04783C12.709 7.94193 13.9256 6.28812 14.0696 6.24062C14.0876 6.87605 14.1334 7.71241 14.0857 8.33155C14.0513 8.77919 13.6016 8.73634 13.1569 9.49705C12.5375 10.5564 13.7559 11.8409 14.6701 11.8368C15.7633 11.8319 17.3591 10.1027 15.429 8.67231C15.2899 8.5692 15.2663 8.54331 15.2506 8.33323C15.2039 7.70833 15.2542 6.88286 15.2695 6.24149C15.3738 6.27711 15.3898 6.33586 15.4815 6.45346L17.4491 9.00118C17.7489 9.40511 18.0199 9.68541 17.9565 10.1151C17.8148 11.0756 17.6652 12.013 17.5023 12.9687L17.0191 15.7466L12.3053 15.7263V15.7263ZM9.55544 31.0396C9.63013 31.1073 9.60912 31.1011 9.60609 31.3502C9.60462 31.4724 9.60579 31.5951 9.60579 31.7174C9.60579 32.1166 9.63649 33.6832 9.57963 33.8608C8.96736 33.9476 7.85647 33.7696 7.31844 33.8996L7.32552 34.9856L22.0148 35L22.022 33.8987C21.4573 33.7704 20.385 33.9488 19.7582 33.8608L19.7362 31.1294C19.7583 31.0436 19.7445 31.0883 19.7845 31.0399C21.4068 31.026 23.0321 31.0227 24.6552 31.0148C25.4765 31.0108 26.3009 31.0144 27.1218 31.003C27.7441 30.9944 27.6637 30.9924 28.0917 30.7471C28.5291 30.4965 28.7754 30.2838 29.0294 29.8498C29.4482 29.1343 29.323 29.2168 29.323 28.3029L29.3166 13.5899C29.2907 13.449 28.9533 12.9005 28.8683 12.7824C28.6962 12.543 28.5012 12.3725 28.2365 12.2025C27.5252 11.7457 27.1907 11.8728 26.1238 11.8682C24.4438 11.861 20.2836 11.8972 18.8523 11.7749C18.8449 11.3874 19.0958 10.2835 19.1466 9.65357C19.1752 9.29808 19.08 9.27224 18.9243 9.06798C18.6359 8.68956 14.9315 3.86066 14.669 3.67447C14.3136 3.98297 10.7585 8.61058 10.3972 9.08839C10.235 9.30279 10.1674 9.33643 10.1929 9.69006C10.2354 10.2804 10.502 11.4196 10.4849 11.774C8.52985 11.9227 5.34553 11.8453 3.17757 11.8652C2.76083 11.869 2.34478 11.8717 1.92799 11.8701C1.42744 11.8682 0.710567 12.4283 0.440322 12.8262C0.357203 12.9487 0.0322548 13.4795 0.0167411 13.6159C-0.0199576 13.9386 0.0151221 14.5156 0.0151221 14.8657V28.3397C0.0151221 28.7018 -0.051255 29.1941 0.111264 29.4951C0.277203 29.8023 0.385469 30.014 0.585167 30.2339C0.803499 30.4743 0.985583 30.5983 1.29562 30.774C1.73072 31.0207 1.6614 31.0045 2.25971 31.0016C3.07768 30.9977 3.90107 31.0126 4.71955 31.0171C6.32913 31.0259 7.94727 31.0132 9.55544 31.0396V31.0396ZM21.4494 9.01919L22.5722 9.02069L22.5779 10.1421L21.4536 10.1398L21.4494 9.01919ZM6.76063 9.01904L7.88389 9.02075L7.88914 10.142L6.76487 10.1398L6.76063 9.01904ZM23.6637 1.94234C23.4522 2.48298 22.303 2.31392 22.6202 1.41172C22.7173 1.13572 23.1046 1.04677 23.4188 1.16005C23.6689 1.25025 23.7885 1.62342 23.6637 1.94234ZM5.08669 1.86891C5.01368 1.49799 5.13635 1.1894 5.45442 1.13287C5.6237 1.1028 5.81259 1.11162 5.95638 1.18619L6.02468 1.22757C6.11974 1.29877 6.15596 1.39303 6.17703 1.51357C6.33645 2.42599 5.19798 2.43419 5.08669 1.86891V1.86891ZM7.21263 2.24442L10.6177 2.24451C10.5383 2.3234 9.79931 2.82977 9.34308 3.26172C8.94557 3.6381 8.56721 4.04998 8.23345 4.50189C7.59363 5.36804 7.12192 6.59107 6.85432 7.82395C6.48043 7.9501 6.02129 7.81755 5.6543 7.90893C5.58718 8.1239 5.61895 10.8399 5.63165 11.2752L9.01624 11.277L9.02008 7.89101L7.97989 7.88879C7.9963 7.53135 8.18267 7.00619 8.30795 6.66954C8.33016 6.60992 8.337 6.5954 8.3611 6.53712C8.3656 6.52626 8.37889 6.49475 8.38318 6.48395L8.52887 6.12134C8.61088 5.93548 8.6927 5.76906 8.78261 5.60054C8.98155 5.22758 9.18308 4.97459 9.41747 4.69477C9.60774 4.46762 9.92132 4.12257 10.1823 3.91729C10.5759 3.6077 10.5649 3.58754 11.0678 3.25779C11.3914 3.04561 11.5147 2.9988 11.8067 2.85402C11.8973 2.80906 11.9741 2.77327 12.0814 2.73102L13.5833 2.33249C15.1945 2.06252 16.8932 2.41231 18.2815 3.24879L18.7445 3.56338C19.3644 4.0248 20.173 4.90848 20.5568 5.59868C20.8331 6.09572 21.2898 7.20271 21.3728 7.87658L20.3417 7.89224C20.2691 8.16324 20.3089 10.8066 20.3211 11.2713L23.7055 11.2772L23.7088 7.88855C23.3242 7.88333 22.8007 7.92561 22.4865 7.82163C22.1933 6.58651 21.8653 5.59886 21.1148 4.52856C20.0712 3.04027 18.8952 2.4458 18.7161 2.24892L21.5346 2.24943C21.6307 2.32982 21.7647 2.53891 21.8531 2.65147C23.0878 4.22363 24.8292 2.8214 24.8183 1.68524C24.8092 0.747784 23.5641 -0.599655 22.2806 0.301639C22.0719 0.448194 21.688 0.861151 21.5739 1.09836L7.18635 1.10919C6.96174 0.541486 6.13262 -0.160141 5.30502 0.0325651C4.7014 0.173118 3.95377 0.923775 3.94311 1.68806C3.93267 2.43493 4.77011 3.19778 5.32818 3.32648C6.23572 3.53575 6.7682 2.88765 7.21263 2.24442V2.24442ZM27.0418 14.1026C27.1157 14.4687 27.0603 15.4949 27.0609 15.9303L27.061 21.4375C27.0506 23.7718 27.1222 26.4934 27.0592 28.7544L2.27622 28.7435C2.25764 26.3037 2.25884 23.8408 2.27463 21.4007C2.27793 20.894 2.23409 14.3853 2.29626 14.0983C2.19664 14.1613 2.25305 14.0841 2.22185 14.2043L2.22689 25.1088C2.23286 26.0017 2.18254 28.0609 2.22962 28.7734C2.57947 28.8361 3.40104 28.7906 3.80172 28.7913L14.669 28.7908C15.1048 28.789 26.7176 28.8369 27.1277 28.7704C27.0852 28.5666 27.1078 21.7554 27.1114 21.4007L27.116 14.2752C27.1075 14.0988 27.1468 14.141 27.0418 14.1026ZM7.87858 21.4424L6.80418 21.4372C6.7492 21.6792 6.77828 22.2693 6.78236 22.546L7.86415 22.5488L7.87858 21.4424V21.4424ZM22.5665 21.4391L21.4938 21.4406L21.4708 22.5451L22.556 22.549L22.5665 21.4391V21.4391ZM23.7338 22.5324L24.8095 22.5304L24.8088 21.4658L23.7305 21.4679L23.7338 22.5324ZM4.53153 22.5325L5.60725 22.53L5.6056 21.4659L4.52813 21.4684L4.53153 22.5325ZM9.04514 22.5323L10.1169 22.5295L10.1161 21.4659L9.04223 21.4684L9.04514 22.5323V22.5323ZM19.2212 22.53L20.2921 22.5325L20.296 21.4679L19.2224 21.466L19.2212 22.53V22.53ZM10.7382 31.0539L18.6074 31.0531L18.5959 33.8237L10.7315 33.8204L10.7382 31.0539ZM22.022 33.8987C21.9713 33.837 22.0123 33.8503 21.9042 33.8252C21.8113 33.8037 20.0506 33.8478 19.7774 33.8158L19.7845 31.0399C19.7445 31.0883 19.7583 31.0436 19.7362 31.1294L19.7582 33.8608C20.385 33.9488 21.4573 33.7704 22.022 33.8987V33.8987ZM7.31844 33.8996C7.85647 33.7696 8.96736 33.9476 9.57963 33.8608C9.63649 33.6832 9.60579 32.1166 9.60579 31.7174C9.60579 31.5951 9.60462 31.4724 9.60609 31.3502C9.60912 31.1011 9.63013 31.1073 9.55544 31.0396L9.55106 33.8191C9.18206 33.8295 8.79779 33.8262 8.42768 33.8262C8.14222 33.8262 7.40504 33.7585 7.31844 33.8996V33.8996ZM10.7097 31.0263C10.6624 31.2654 10.663 33.7063 10.7227 33.8723L18.6153 33.8644C18.6846 33.6828 18.6812 31.2857 18.6284 31.0122L10.7097 31.0263ZM12.4445 23.1273L12.4461 19.2002L16.9015 19.2022L16.892 23.1269C16.9364 23.101 16.9449 23.1533 16.9506 22.945C16.9689 22.2808 16.9704 19.378 16.9317 19.1775C16.7422 19.1322 12.5952 19.1322 12.4067 19.1775C12.3519 19.4832 12.3913 22.1361 12.3871 22.9073C12.3861 23.0874 12.3817 23.0697 12.4445 23.1273V23.1273ZM9.04223 21.4684L10.1161 21.4659L10.1169 22.5295L9.04514 22.5323L9.04223 21.4684V21.4684ZM9.03367 21.4527C8.97222 21.6233 8.98404 22.3686 9.0202 22.5786L10.1652 22.5893L10.156 21.4338C9.93428 21.3989 9.21084 21.3764 9.03367 21.4527V21.4527ZM19.2224 21.466L20.296 21.4679L20.2921 22.5325L19.2212 22.53L19.2224 21.466V21.466ZM19.2031 21.455C19.1423 21.615 19.1523 22.373 19.1882 22.578L20.3342 22.5908L20.3234 21.4295C20.0954 21.4022 19.3802 21.3744 19.2031 21.455V21.455ZM23.7305 21.4679L24.8088 21.4658L24.8095 22.5304L23.7338 22.5324L23.7305 21.4679ZM23.7214 21.4537C23.6658 21.6234 23.6788 22.3672 23.7077 22.5785L24.8554 22.5903L24.8452 21.4308C24.6181 21.4024 23.8963 21.374 23.7214 21.4537V21.4537ZM4.52813 21.4684L5.6056 21.4659L5.60725 22.53L4.53153 22.5325L4.52813 21.4684ZM4.49951 22.5797L5.64125 22.5688L5.63375 21.418L4.48327 21.4328L4.49951 22.5797ZM22.5665 21.4391L22.556 22.549L21.4708 22.5451L21.4938 21.4406C21.4163 21.4973 21.4495 21.4389 21.4258 21.5464C21.4258 21.5466 21.4261 21.6824 21.4263 21.6936L21.4431 22.5578C21.6008 22.6245 22.4061 22.6305 22.5894 22.5648C22.6159 22.3863 22.6282 21.5675 22.5665 21.4391V21.4391ZM7.87858 21.4424L7.86415 22.5488L6.78236 22.546C6.77828 22.2693 6.7492 21.6792 6.80418 21.4372C6.73594 21.4971 6.73753 21.3922 6.73291 21.621L6.75325 22.5624C6.92039 22.626 7.73812 22.6288 7.89986 22.5605C7.92236 22.3706 7.93613 21.5717 7.87858 21.4424Z" fill="#F1F2F6"/>
</svg>
