<svg width="31" height="35" viewBox="0 0 31 35" fill="none" xmlns="http://www.w3.org/2000/svg">
<path fill-rule="evenodd" clip-rule="evenodd" d="M0.762929 29.6846L0.764906 9.58692L14.4043 5.0374L14.4139 25.1471C13.9077 25.3483 13.276 25.5304 12.7326 25.7206C12.1399 25.928 11.6349 26.0931 11.0397 26.2832C9.89307 26.6494 8.76832 27.057 7.60366 27.4264C6.49145 27.7791 5.29873 28.1662 4.21702 28.5528C3.64647 28.7567 3.10584 28.9375 2.5255 29.1167C1.99774 29.2796 1.31906 29.5708 0.762929 29.6846ZM17.3903 21.123C17.5607 20.6958 21.5228 10.8633 21.6699 10.6946C21.9265 10.7654 23.3277 11.1481 23.487 11.2411C23.724 11.3795 23.9993 12.6864 24.0931 13.0237L26.6754 22.3366C26.7812 22.7223 27.0531 23.8594 27.1709 24.0947C26.9495 24.0916 26.3094 23.866 26.0456 23.7867C25.1932 23.5304 25.1847 23.6467 25.0678 23.2644C24.882 22.6559 24.6621 21.4306 24.4166 20.9373C24.2807 20.7613 20.4033 19.6605 20.2887 19.629L19.432 21.7691C19.0601 21.6823 17.5954 21.2718 17.3903 21.123ZM26.5519 0.925971L26.5366 8.327L18.0754 5.64497C17.4962 5.44896 15.6911 4.96582 15.3239 4.72442L26.5519 0.925971ZM0 9.18077V30.3789C0.395106 30.7727 0.569406 30.5744 1.74174 30.1818L13.0242 26.4231C13.3378 26.32 13.6153 26.2238 13.9424 26.1116C15.3371 25.6331 14.7723 25.6422 16.7246 26.2725L30.1652 30.5279L30.1647 9.52524L27.3107 8.57854C27.2246 7.58271 27.2878 2.64076 27.2984 0.956879C27.302 0.399815 27.3664 0.260956 27.0294 0H26.8604C26.4636 0.202863 25.8142 0.337594 25.3813 0.499454C24.8765 0.688191 24.4231 0.83637 23.9092 1.00705C21.1166 1.93449 17.7713 3.01719 15.0707 3.99767C14.2244 4.30498 14.4741 4.34972 13.6434 4.06113L3.40877 0.462715L3.41047 7.88731L0.766844 8.76513C0.295119 8.92968 0.312326 8.83921 0 9.18077Z" fill="#010002"/>
<path fill-rule="evenodd" clip-rule="evenodd" d="M3.47753 15.376C3.61813 16.775 5.4329 16.2752 5.62472 15.9468C5.73502 15.7579 5.62356 15.956 5.68099 15.7946L5.75399 15.5875C5.86981 15.513 9.13435 14.5261 9.42586 14.5005C9.19242 15.5643 7.20402 18.7728 6.53552 19.7299C5.98388 20.5196 5.39985 21.2925 4.8324 22.0587L2.92984 24.2777C3.51504 24.2583 3.59912 24.2605 3.95913 23.9207C4.8978 23.035 5.06053 22.7655 5.95104 21.7416L7.74737 19.3684C7.89125 19.1587 8.16344 18.6935 8.33987 18.5365C8.62835 18.64 9.67709 19.5797 10.3764 19.9755C10.9349 20.2916 12.1312 21.0125 12.8519 21.0598C12.8441 20.7949 12.7912 20.5585 12.7147 20.306C12.5994 19.9256 12.6116 19.9878 12.2775 19.8508L8.54388 18.252C8.62401 17.9946 9.09205 17.2987 9.27422 16.9987C9.93514 15.9101 10.1199 15.4518 10.674 14.3614C10.966 13.7868 11.2115 13.5671 11.1319 12.7977C10.5344 12.909 9.86205 13.273 9.37577 13.5435C8.7592 13.8865 8.13106 14.0068 7.48126 14.2495C6.33237 14.6785 4.74369 15.2363 3.47753 15.376Z" fill="#010002"/>
<path fill-rule="evenodd" clip-rule="evenodd" d="M13.6671 35H15.6428C15.8452 34.9124 17.2427 34.7563 17.6477 34.6698C18.2787 34.5351 18.8467 34.3567 19.454 34.1521C21.0146 33.6262 22.216 32.8209 22.6428 32.6667L23.3778 33.911L23.559 33.5369C23.7441 32.9978 24.4703 31.0736 24.4506 30.7912L21.3747 30.5618L22.2064 31.9975C20.9987 32.6651 20.1126 33.1577 18.6633 33.634C15.1232 34.7972 11.2647 34.2327 8.01367 32.6631C7.17562 32.2585 6.7553 31.8537 6.21267 31.9233C5.95656 32.4164 6.10214 32.4814 6.51159 32.7271C10.0787 34.8675 13.2957 34.8332 13.6671 35Z" fill="#010002"/>
<path fill-rule="evenodd" clip-rule="evenodd" d="M21.0726 17.6871L23.7428 18.4908L22.5498 14.1647C22.3033 14.5421 21.9953 15.4452 21.7976 15.9205C21.5732 16.4601 21.2364 17.1627 21.0726 17.6871Z" fill="#010002"/>
<path fill-rule="evenodd" clip-rule="evenodd" d="M5.2717 11.746C5.78123 14.0121 8.21808 12.8042 8.61328 12.3044C8.76373 12.1141 8.99578 11.5745 8.68733 11.3377C8.45292 11.1577 7.79133 11.3753 7.54702 11.4434C6.61095 11.7045 6.34071 11.9642 5.2717 11.746Z" fill="#010002"/>
</svg>
