<svg width="163" height="190" viewBox="0 0 163 190" fill="none" xmlns="http://www.w3.org/2000/svg">
<path d="M61.768 113.846H47.517L44.4475 120.472H41.6339L53.327 95.6693H55.9945L67.6877 120.472H64.8375L61.768 113.846ZM60.7814 111.72L54.6425 98.3976L48.5036 111.72H60.7814Z" fill="white"/>
<path d="M81.4928 95.6693C84.7571 95.6693 87.315 96.4252 89.1664 97.937C91.0178 99.4488 91.9436 101.528 91.9436 104.173C91.9436 106.819 91.0178 108.898 89.1664 110.409C87.315 111.898 84.7571 112.642 81.4928 112.642H74.6231V120.472H71.919V95.6693H81.4928ZM81.4197 110.339C83.9532 110.339 85.8899 109.807 87.2297 108.744C88.5696 107.657 89.2395 106.134 89.2395 104.173C89.2395 102.165 88.5696 100.63 87.2297 99.5669C85.8899 98.4803 83.9532 97.937 81.4197 97.937H74.6231V110.339H81.4197Z" fill="white"/>
<path d="M107.364 95.6693C110.629 95.6693 113.186 96.4252 115.038 97.937C116.889 99.4488 117.815 101.528 117.815 104.173C117.815 106.819 116.889 108.898 115.038 110.409C113.186 111.898 110.629 112.642 107.364 112.642H100.494V120.472H97.7904V95.6693H107.364ZM107.291 110.339C109.825 110.339 111.761 109.807 113.101 108.744C114.441 107.657 115.111 106.134 115.111 104.173C115.111 102.165 114.441 100.63 113.101 99.5669C111.761 98.4803 109.825 97.937 107.291 97.937H100.494V110.339H107.291Z" fill="white"/>
<path fill-rule="evenodd" clip-rule="evenodd" d="M100.738 0C106.472 0 111.121 4.62856 111.121 10.3381C111.121 16.0476 106.472 20.6762 100.738 20.6762C95.0034 20.6762 90.3547 16.0476 90.3547 10.3381C90.3547 4.62856 95.0034 0 100.738 0ZM131.062 150.649C131.906 149.645 133.408 149.512 134.417 150.352C135.426 151.193 135.56 152.689 134.716 153.693C128.056 161.595 119.817 167.826 110.657 172.079C101.493 176.333 91.4053 178.614 81.0533 178.614C61.709 178.614 44.1957 170.807 31.5187 158.185C18.8417 145.563 11.0007 128.125 11.0007 108.864C11.0007 94.8759 15.2034 81.5593 22.6417 70.3699C30.0764 59.1859 40.7454 50.1331 53.6818 44.6658C54.8916 44.1533 56.2898 44.7143 56.8046 45.9188C57.3194 47.1233 56.7559 48.5154 55.5461 49.028C43.4877 54.1243 33.5428 62.5626 26.613 72.9873C19.6867 83.4063 15.7735 95.817 15.7735 108.864C15.7735 126.813 23.0802 143.063 34.8933 154.825C46.7065 166.587 63.0267 173.862 81.0533 173.862C90.7026 173.862 100.104 171.737 108.643 167.772C117.186 163.806 124.864 158.003 131.062 150.649ZM58.3138 36.1375L70.2367 52.3142C71.925 51.9964 73.6487 51.7504 75.4047 51.5807C77.2778 51.3994 79.1625 51.3065 81.0532 51.3065C88.879 51.3065 96.345 52.8573 103.158 55.667C110.236 58.5862 116.603 62.8612 121.93 68.1649C127.256 73.4689 131.55 79.8083 134.482 86.8555C137.304 93.6388 138.861 101.073 138.861 108.864C138.861 113.787 138.24 118.566 137.072 123.128C135.903 127.69 134.184 132.039 131.989 136.099L143.904 152.264C148.191 146.121 151.593 139.323 153.924 132.051C156.267 124.746 157.531 116.955 157.531 108.864C157.531 102.14 156.658 95.6229 155.017 89.42C153.356 83.1427 150.912 77.1826 147.794 71.6506C146.642 71.6135 145.603 71.1336 144.843 70.3766C144.051 69.5881 143.561 68.4984 143.561 67.2953C143.561 66.0919 144.051 65.0024 144.843 64.2139C145.634 63.4255 146.729 62.9376 147.937 62.9376C149.146 62.9377 150.24 63.4253 151.032 64.2139C151.824 65.0024 152.314 66.0921 152.314 67.2953C152.314 67.7403 152.245 68.1735 152.117 68.5843C152.028 68.8714 151.91 69.1451 151.767 69.4019C155.079 75.2725 157.676 81.5971 159.438 88.2573C161.179 94.8394 162.106 101.746 162.106 108.865C162.106 119.791 159.923 130.215 155.967 139.724C151.857 149.604 145.837 158.492 138.366 165.93C130.896 173.367 121.97 179.361 112.047 183.454C102.496 187.393 92.0275 189.567 81.0532 189.567C70.0791 189.567 59.6103 187.393 50.0592 183.454C40.1367 179.362 31.2103 173.368 23.74 165.93C16.27 158.492 10.2498 149.604 6.13977 139.724C2.18354 130.215 0.000132577 119.791 0 108.864C0.000132577 97.9377 2.18367 87.5146 6.13977 78.0046C10.2497 68.1253 16.2697 59.2374 23.74 51.7994C31.2103 44.3614 40.1369 38.3673 50.0592 34.2751C59.6104 30.3359 70.079 28.162 81.0533 28.162C91.7465 28.162 101.959 30.2262 111.311 33.9759C120.817 37.7878 129.43 43.3418 136.752 50.2401L136.754 50.2372C137.698 51.1427 138.61 52.0403 139.523 52.979L139.973 53.4455L132.176 61.1854C137.68 67.0331 142.183 73.824 145.413 81.2876C148.621 88.699 150.575 96.7776 151.009 105.258C151.009 106.132 151.08 107.069 151.094 107.959L151.097 107.972H151.095L151.099 108.435C151.101 108.83 151.103 108.72 151.103 108.864L151.1 108.864C151.096 110.974 151.006 113.064 150.82 115.166H150.818C150.748 115.943 150.665 116.715 150.572 117.49L150.569 117.495C150.475 118.23 150.376 118.962 150.262 119.695L150.26 119.695C150.184 120.178 150.104 120.657 150.02 121.139C149.916 121.699 149.812 122.258 149.7 122.817C149.66 122.898 149.487 123.821 149.447 123.999L149.445 124.002C149.277 124.747 149.102 125.49 148.913 126.231L148.91 126.233L148.685 127.089C148.569 127.508 148.453 127.925 148.333 128.342L148.33 128.345L148.107 129.099L148.105 129.101L147.99 129.474V129.479L147.876 129.843L147.873 129.846L147.652 130.535V130.54C147.456 131.133 147.253 131.722 147.044 132.31L147.041 132.313L147.012 132.394L147.014 132.395C146.845 132.866 146.666 133.345 146.479 133.832C146.356 134.152 146.213 134.512 146.05 134.913C146.256 135.216 146.425 135.543 146.55 135.889C146.715 136.348 146.805 136.843 146.805 137.357C146.805 138.561 146.315 139.651 145.523 140.439C144.731 141.227 143.637 141.715 142.428 141.715C141.22 141.715 140.126 141.228 139.334 140.439C138.542 139.651 138.052 138.561 138.052 137.358C138.052 136.175 138.527 135.101 139.298 134.315C139.971 133.628 140.872 133.162 141.88 133.037C141.969 132.815 142.048 132.617 142.116 132.443C142.219 132.179 142.338 131.865 142.472 131.504L142.605 131.143L142.607 131.143L142.721 130.827L142.72 130.827L142.956 130.159L142.955 130.159L143.189 129.478L143.514 128.481L143.512 128.48L143.72 127.818L144.013 126.827L144.012 126.826C144.174 126.256 144.33 125.685 144.48 125.112L144.478 125.111C144.572 124.746 144.663 124.38 144.753 124.014L144.981 123.025L144.979 123.024C145.062 122.646 145.144 122.268 145.223 121.889L145.221 121.888C145.313 121.428 145.404 120.969 145.488 120.508L145.487 120.507C145.584 119.964 145.676 119.422 145.763 118.876L145.76 118.876C145.86 118.228 145.948 117.584 146.033 116.935L146.031 116.935C146.124 116.172 146.207 115.412 146.276 114.646L146.274 114.646C146.442 112.716 146.528 110.802 146.53 108.864H146.528L146.529 108.442L146.525 108.022L146.522 108.009H146.525C146.511 107.167 146.486 106.333 146.444 105.492C146.025 97.306 144.09 89.5203 140.915 82.4083C137.632 75.0552 133.02 68.4165 127.381 62.795L127.38 62.7962L127.351 62.767V62.7648L126.78 62.2035C126.594 62.0222 126.4 61.8362 126.2 61.6469L125.708 61.1802L133.512 53.4533C126.616 46.9789 118.512 41.766 109.573 38.1864C100.763 34.6585 91.1374 32.717 81.0533 32.717C76.9661 32.717 72.9641 33.0338 69.0706 33.6437C65.3941 34.2196 61.8019 35.0576 58.3138 36.1375ZM126.433 55.1623C126.433 56.3654 125.942 57.4552 125.151 58.2437C124.359 59.0321 123.264 59.5202 122.056 59.52C120.848 59.52 119.753 59.0321 118.961 58.2437C118.169 57.4551 117.679 56.3654 117.679 55.1623C117.679 55.0507 117.684 54.9387 117.692 54.8276C112.428 51.2818 106.619 48.4787 100.419 46.57C94.3026 44.6872 87.7991 43.6732 81.0532 43.6732C80.0206 43.6733 79.0231 43.6949 78.0611 43.7381C77.1946 43.7769 76.3366 43.8322 75.4884 43.9031C75.171 44.6027 74.6729 45.2041 74.0534 45.6479C73.3328 46.1646 72.4508 46.469 71.5003 46.4689C70.2917 46.469 69.1975 45.9811 68.4056 45.1925C67.6138 44.4041 67.1238 43.3144 67.1237 42.1112C67.1238 40.908 67.6137 39.8185 68.4056 39.0299C69.1976 38.2416 70.2917 37.7537 71.5003 37.7536C72.2471 37.7536 72.9522 37.9416 73.5701 38.2726C74.0894 38.5506 74.5461 38.9304 74.9128 39.3853C75.871 39.3023 76.8306 39.2384 77.7911 39.1944C78.901 39.1437 79.989 39.1181 81.0532 39.118C88.2777 39.1179 95.2507 40.2093 101.814 42.2349C108.482 44.2925 114.723 47.3157 120.375 51.1391C120.575 51.0565 120.784 50.9877 121 50.9344C121.342 50.8495 121.696 50.8046 122.056 50.8048C123.265 50.8046 124.359 51.2925 125.151 52.0811C125.942 52.8694 126.433 53.959 126.433 55.1623ZM118.695 146.343C123.606 141.454 127.561 135.618 130.257 129.136C132.853 122.894 134.286 116.048 134.286 108.864C134.286 101.681 132.853 94.8345 130.257 88.5927C127.56 82.1112 123.606 76.2749 118.695 71.3857C113.784 66.4961 107.923 62.5584 101.413 59.8737C95.1442 57.2885 88.268 55.8615 81.0532 55.8617C73.8385 55.8614 66.9622 57.2884 60.6933 59.8737C54.1837 62.5584 48.322 66.4961 43.4115 71.3855C38.5007 76.2749 34.5458 82.1112 31.8495 88.5927C29.2532 94.8345 27.8199 101.681 27.8201 108.864C27.8199 116.048 29.2531 122.894 31.8495 129.136C34.5458 135.618 38.5009 141.454 43.4115 146.343C48.322 151.233 54.1837 155.171 60.6934 157.855C66.9622 160.44 73.8384 161.867 81.0533 161.867C88.268 161.867 95.1442 160.441 101.413 157.855C107.923 155.171 113.784 151.233 118.695 146.343ZM61.4509 0C67.1852 0 71.8339 4.62856 71.8339 10.3381C71.8339 16.0476 67.1852 20.6762 61.4509 20.6762C55.7165 20.6762 51.0678 16.0476 51.0678 10.3381C51.0678 4.62856 55.7165 0 61.4509 0Z" fill="url(#paint0_linear_16_171)"/>
<defs>
<linearGradient id="paint0_linear_16_171" x1="5.16864" y1="175.708" x2="137.345" y2="53.5526" gradientUnits="userSpaceOnUse">
<stop stop-color="#038FCD"/>
<stop offset="1" stop-color="#04FAF5"/>
</linearGradient>
</defs>
</svg>
