<svg width="26" height="28" viewBox="0 0 26 28" fill="none" xmlns="http://www.w3.org/2000/svg">
<path d="M25.375 2.75V25.25C25.3743 25.8465 25.137 26.4184 24.7152 26.8402C24.2934 27.262 23.7215 27.4993 23.125 27.5H18.0625C17.466 27.4993 16.8941 27.262 16.4723 26.8402C16.0505 26.4184 15.8132 25.8465 15.8125 25.25V2.75C15.8132 2.15347 16.0505 1.58157 16.4723 1.15976C16.8941 0.737954 17.466 0.500682 18.0625 0.5H23.125C23.7215 0.500682 24.2934 0.737954 24.7152 1.15976C25.137 1.58157 25.3743 2.15347 25.375 2.75ZM7.9375 0.5H2.875C2.27847 0.500682 1.70657 0.737954 1.28476 1.15976C0.862954 1.58157 0.625682 2.15347 0.625 2.75V25.25C0.625682 25.8465 0.862954 26.4184 1.28476 26.8402C1.70657 27.262 2.27847 27.4993 2.875 27.5H7.9375C8.53403 27.4993 9.10593 27.262 9.52774 26.8402C9.94955 26.4184 10.1868 25.8465 10.1875 25.25V2.75C10.1868 2.15347 9.94955 1.58157 9.52774 1.15976C9.10593 0.737954 8.53403 0.500682 7.9375 0.5Z" fill="white"/>
</svg>
