<svg width="25" height="30" viewBox="0 0 25 30" fill="none" xmlns="http://www.w3.org/2000/svg">
<path d="M23.6689 13.0796L3.42334 0.706778C3.08233 0.498247 2.69191 0.38434 2.29226 0.376776C1.89261 0.369213 1.49817 0.468266 1.14951 0.663744C0.800847 0.859222 0.510564 1.14407 0.308527 1.48897C0.10649 1.83387 -4.30577e-06 2.22637 1.30571e-10 2.62609V27.3739C0.000325237 27.7735 0.107025 28.1658 0.309139 28.5105C0.511252 28.8552 0.801492 29.1399 1.15004 29.3353C1.49859 29.5307 1.89287 29.6298 2.29239 29.6224C2.69192 29.615 3.08226 29.5014 3.42334 29.2932L23.6689 16.9204C23.9978 16.7193 24.2696 16.4371 24.4581 16.1008C24.6466 15.7645 24.7456 15.3855 24.7456 15C24.7456 14.6145 24.6466 14.2354 24.4581 13.8992C24.2696 13.5629 23.9978 13.2807 23.6689 13.0796Z" fill="white"/>
</svg>
