<svg width="24" height="24" viewBox="0 0 24 24" fill="none" xmlns="http://www.w3.org/2000/svg">
<circle cx="12" cy="12" r="12" fill="#31B9CC"/>
<path d="M16.8896 11.3599L10.1411 7.23559C10.0274 7.16608 9.8973 7.12811 9.76409 7.12559C9.63087 7.12307 9.49939 7.15609 9.38317 7.22125C9.26695 7.28641 9.17019 7.38136 9.10284 7.49632C9.0355 7.61129 9 7.74212 9 7.87536V16.1246C9.00011 16.2578 9.03568 16.3886 9.10305 16.5035C9.17042 16.6184 9.26716 16.7133 9.38335 16.7784C9.49953 16.8436 9.63096 16.8766 9.76413 16.8741C9.89731 16.8717 10.0274 16.8338 10.1411 16.7644L16.8896 12.6401C16.9993 12.5731 17.0899 12.479 17.1527 12.3669C17.2155 12.2548 17.2485 12.1285 17.2485 12C17.2485 11.8715 17.2155 11.7451 17.1527 11.6331C17.0899 11.521 16.9993 11.4269 16.8896 11.3599Z" fill="#F1F2F6"/>
</svg>
