<svg width="35" height="27" viewBox="0 0 35 27" fill="none" xmlns="http://www.w3.org/2000/svg">
<path fill-rule="evenodd" clip-rule="evenodd" d="M13.3198 22.7088L21.6841 22.708L21.6992 25.764L13.3332 25.7674L13.3198 22.7088ZM20.7196 9.82762L22.3138 9.8324L22.3278 8.61938L20.72 8.60509L20.7196 9.82762ZM14.2983 4.09703L15.8929 4.11215L15.9063 2.88414L14.2991 2.88196L14.2983 4.09703V4.09703ZM17.5113 4.11113L19.0985 4.11211L19.1166 2.87876L17.5173 2.88034L17.5113 4.11113ZM17.5087 9.82961L19.1196 9.83523L19.1156 8.60318L17.5148 8.60485L17.5087 9.82961ZM22.3193 15.5555L23.9324 15.5425L23.9331 14.3253L22.321 14.3221L22.3193 15.5555ZM25.5537 6.97325L27.1211 6.97223L27.1425 5.74111L25.5379 5.74083C25.5167 5.98978 25.4954 6.76133 25.5537 6.97325V6.97325ZM28.7461 6.96824L31.9457 6.97204L31.9595 5.75211L28.7477 5.74097L28.7461 6.96824ZM20.7186 4.10454L23.9204 4.11178L23.9325 2.88767L20.7215 2.88039L20.7186 4.10454ZM20.7191 6.96652L23.9173 6.97218L23.9331 5.74835L20.72 5.7413L20.7191 6.96652V6.96652ZM20.7166 12.6788L25.5377 12.6945L25.534 11.4702L20.7192 11.4645L20.7166 12.6788ZM27.1372 12.6884L31.962 12.6939L31.9589 11.4761L27.1398 11.4639L27.1372 12.6884ZM25.5282 15.5547L31.9593 15.5393L31.9603 14.3244L25.5299 14.3239L25.5282 15.5547ZM25.5318 4.11327L31.9491 4.11159L31.9592 2.89055L25.541 2.87987L25.5318 4.11327V4.11327ZM11.1674 10.8824L10.0243 10.4045C9.81692 10.9269 7.29852 16.4145 7.27414 16.6108L8.40476 17.085L11.1674 10.8824V10.8824ZM11.7125 11.6857C11.7768 11.8457 12.6401 12.543 12.8349 12.7218C13.0335 12.904 13.9 13.6569 13.9622 13.7862C13.7495 13.8946 13.6011 14.1 13.3995 14.2553L12.8279 14.7537C12.7135 14.8617 12.6879 14.9097 12.5647 15.0048L11.7236 15.7805C11.797 15.8638 11.8451 15.9258 11.9178 16.0149L12.5557 16.6654L12.9358 16.3493C13.012 16.2837 13.0371 16.2392 13.1109 16.1699C13.1861 16.0993 13.25 16.06 13.3325 15.9939C13.427 15.918 13.4164 15.9166 13.5112 15.8177L15.0934 14.4271C15.1695 14.3616 15.2158 14.2983 15.2891 14.2284C16.0396 13.5129 14.9466 13.0346 14.5149 12.561L12.9402 11.1645C12.7711 11.0302 12.7151 10.8841 12.5011 10.8215C12.4114 10.9769 11.893 11.5301 11.7125 11.6857V11.6857ZM4.47572 13.7402C4.58471 13.6317 4.63125 13.6049 4.76481 13.4657L5.33374 12.9646C5.71633 12.6677 6.32432 12.0411 6.71698 11.7414C6.67739 11.6362 6.00155 10.909 5.8841 10.8265C5.73173 10.8987 5.7837 10.8949 5.66587 11.0134C5.59774 11.0818 5.54549 11.1126 5.46725 11.1735L4.08136 12.4023C4.00445 12.4739 3.98834 12.5132 3.90826 12.5828L3.10429 13.2859C2.58672 13.8315 3.10741 14.2498 3.56157 14.6094C3.71507 14.7309 3.71389 14.7767 3.95749 14.9652L5.49914 16.3543C5.5984 16.4535 5.77482 16.5806 5.8841 16.6672C6.04874 16.5714 6.56825 15.9205 6.70894 15.7805L4.47572 13.7402V13.7402ZM4.6664 4.09939L12.6869 4.11164L12.6956 2.89445L4.66947 2.88029L4.6664 4.09939V4.09939ZM23.9263 9.83778L31.9612 9.83439L31.9588 8.61492L23.9354 8.60434L23.9263 9.83778ZM11.0884 6.96786L19.0925 6.97241C19.1479 6.77354 19.1279 5.98077 19.1092 5.7399L11.0891 5.74111L11.0884 6.96786V6.96786ZM1.28162 19.8464L1.48964 19.8454L33.4892 19.8452L33.7372 19.8463L33.7369 21.4768L33.5691 21.4779L1.52961 21.4782L1.28186 21.4768L1.28162 19.8464V19.8464ZM1.28167 1.24915L1.21 1.2472H33.8088L33.7373 1.24915L33.7371 1.38088L33.7289 18.6174L1.28171 18.6177L1.28167 1.24915V1.24915ZM12.0527 22.7103L12.0663 25.7618L9.20911 25.7673L9.21535 27L25.8189 26.997L25.807 25.7634L22.9646 25.7672L22.9527 22.7102C25.1126 22.6544 27.3388 22.7079 29.4943 22.7079C30.5862 22.7079 31.6782 22.7079 32.7701 22.7079C33.4624 22.7079 34.8616 22.8932 34.9844 21.5893L34.99 2.24409C34.99 1.50765 35.177 0.216957 33.9373 0.0329299C33.4999 -0.0319854 5.73461 0.0191047 2.72808 0.0191047C2.26744 0.0191047 1.54284 -0.0227502 1.11527 0.0284303C-0.15071 0.180023 0.0288214 1.50218 0.0288214 2.20483V19.9395C0.0288214 21.0634 -0.211703 22.0871 0.696915 22.5638C1.11201 22.7815 1.71008 22.7079 2.20871 22.7079C3.30069 22.7079 4.39266 22.7079 5.48459 22.7079C7.65328 22.7079 9.89308 22.6541 12.0527 22.7103V22.7103Z" fill="#010002"/>
</svg>
