<svg width="35" height="36" viewBox="0 0 35 36" fill="none" xmlns="http://www.w3.org/2000/svg">
<path fill-rule="evenodd" clip-rule="evenodd" d="M4.65449 25.3138C4.83188 25.239 7.25827 24.9025 7.44442 24.9333L9.54771 27.6062C9.78258 27.9092 10.0205 28.2181 10.2431 28.4959C10.0688 28.6589 9.69849 28.8925 9.47877 29.0408C8.21077 29.8968 8.09099 29.4607 7.09556 28.2626C6.69038 27.7749 6.29122 27.287 5.87874 26.8066L4.96206 25.7085C4.88265 25.6163 4.86324 25.5996 4.80013 25.5205L4.65449 25.3138V25.3138ZM8.34854 24.0114C7.35598 24.1364 3.00922 24.9068 2.41155 24.798C0.72127 24.4904 0.16299 21.6128 1.21921 20.3431C1.7166 19.7451 2.8785 19.7066 3.85876 19.5693C4.8406 19.4317 5.8413 19.3018 6.81839 19.156C7.70879 19.0231 7.6337 18.9096 7.68743 19.305C7.79643 20.1069 8.3911 23.7989 8.34854 24.0114V24.0114ZM8.3796 18.8624C8.61467 18.7689 8.9761 18.7003 9.2228 18.6233C11.2833 17.9803 12.5638 17.0527 13.5516 15.0243C13.7553 14.6061 14.0865 13.7208 14.7197 14.2426C15.0039 14.4769 15.0598 15.626 15.1306 16.1067L16.579 25.9162C16.7217 26.8328 16.1009 27.0667 15.5402 26.5192C15.3275 26.3116 15.216 26.1197 15.0214 25.9425C14.3244 25.3082 14.0262 24.9603 13.0429 24.5049C11.7151 23.8899 10.6528 23.9711 9.12422 23.9399L9.0012 23.3327C8.97012 23.117 8.93738 22.8999 8.90608 22.6852C8.81411 22.0537 8.31201 19.0478 8.3796 18.8624V18.8624ZM8.2247 24.7604C8.70052 24.6195 10.1114 24.6185 10.659 24.6577C11.3878 24.7098 12.0843 24.8504 12.694 25.1165C13.4897 25.4638 14.3078 26.1545 14.811 26.7661C15.6568 27.7942 16.6492 27.7323 17.1709 26.8778C17.4923 26.3513 17.2183 25.346 17.1258 24.7105C16.9144 23.2567 16.704 21.8145 16.4899 20.3512C16.2775 18.899 16.071 17.4482 15.8556 15.9943C15.7746 15.4482 15.7022 14.2948 15.4249 13.9318C15.0575 13.4509 14.3027 13.1269 13.6636 13.6029C12.4572 14.5016 13.0575 16.9802 8.22717 18.1545C6.86802 18.4849 5.29367 18.6312 3.86754 18.8307C2.16164 19.0693 1.11953 19.0965 0.387321 20.3435C-0.586722 22.0023 0.252328 25.8941 3.17769 25.4976C3.82861 25.4094 3.69291 25.3103 4.01979 25.6879C4.75165 26.5332 6.73376 29.0386 7.433 29.7644C7.90713 30.2565 8.62403 30.3202 9.33841 29.9949C9.61849 29.8674 9.88453 29.6626 10.114 29.5011C10.9936 28.882 11.4083 28.7682 10.9493 28.2191C10.0866 27.1872 9.02268 25.6942 8.2247 24.7604V24.7604Z" fill="#010002"/>
<path fill-rule="evenodd" clip-rule="evenodd" d="M23.3964 12.7092C23.3993 12.4053 23.9038 11.0009 24.0283 10.6087L25.3303 6.56631C25.487 6.08667 25.7942 4.91916 25.9897 4.56344C26.2764 4.5806 31.3427 6.25395 32.1075 6.49104C32.6204 6.65005 33.6951 6.93708 34.1384 7.15685L31.5005 15.2973L23.3964 12.7092V12.7092ZM34.8014 7.4868C35.1158 6.47357 34.0088 6.34214 33.2088 6.08973C30.9083 5.36374 28.6386 4.57927 26.3474 3.88634C25.3086 3.57217 25.1853 4.70279 24.9417 5.47691L22.7339 12.3356C22.4096 13.3719 23.5045 13.4758 24.3299 13.7435L31.1906 15.948C32.2234 16.2671 32.3455 15.1346 32.5954 14.3569L34.8014 7.4868Z" fill="#010002"/>
<path fill-rule="evenodd" clip-rule="evenodd" d="M23.0541 31.5427C23.1204 31.17 23.7069 29.9973 23.8857 29.563L26.4328 23.7067C26.7068 23.7279 29.8451 25.139 30.3595 25.3656L34.2681 27.0658C34.2604 27.3121 32.821 30.5147 32.6062 31.0129C32.3807 31.5356 31.0649 34.7178 30.8873 34.9226L23.0541 31.5427ZM34.9727 27.2848C35.0976 26.7812 34.7752 26.5003 34.3883 26.3298L26.6721 23.0075C26.1237 22.8649 25.8525 23.196 25.6746 23.5993L22.3524 31.3205C22.2279 31.8879 22.5984 32.1379 22.9834 32.304C25.131 33.2305 27.4606 34.2735 29.5915 35.1566C30.4526 35.5135 31.181 36.1035 31.6496 35.0052L33.0761 31.7016C33.3997 30.9644 33.7056 30.2363 34.0274 29.499L34.9727 27.2848Z" fill="#010002"/>
<path fill-rule="evenodd" clip-rule="evenodd" d="M6.19903 1.17817L14.5963 0.709621C14.6096 0.711089 14.6215 0.712855 14.6339 0.715035L14.735 0.748875L15.2332 9.25608C14.7532 9.28923 7.00704 9.76813 6.68231 9.7127L6.19903 1.17817V1.17817ZM14.146 0.0124238L6.76071 0.427062C5.64674 0.489557 5.44551 0.617965 5.51292 1.7777L5.92746 9.15203C5.98874 10.278 6.0957 10.48 7.27347 10.4128L14.6495 9.99996C15.8143 9.9365 15.9759 9.83909 15.9076 8.62445L15.4933 1.26005C15.4298 0.14042 15.3135 -0.0572064 14.146 0.0124238V0.0124238Z" fill="#010002"/>
<path fill-rule="evenodd" clip-rule="evenodd" d="M27.7514 29.6501C27.8171 29.4341 28.2831 28.319 28.3971 28.2098C28.5916 28.5108 29.1399 29.0794 29.4333 29.5239L27.7514 29.6501ZM27.1764 26.8348C26.5836 27.0269 26.4888 27.5737 26.1354 28.3964C25.9278 28.88 25.4632 29.6836 26.3382 30.1319C26.8784 30.4086 27.5733 30.673 28.1397 30.9148C28.5814 31.1034 29.5535 31.6566 30.0517 31.5259C30.6438 31.3705 30.8377 30.5616 31.0933 29.981C31.3084 29.4924 31.7699 28.656 30.9177 28.2238C30.3549 27.9384 29.7087 27.6971 29.1199 27.4378C28.6926 27.2495 27.644 26.6832 27.1764 26.8348V26.8348Z" fill="#010002"/>
<path fill-rule="evenodd" clip-rule="evenodd" d="M27.0999 8.9414C26.9297 8.89088 27.0595 8.9431 26.9333 8.86433L26.7518 8.74256C26.6129 9.40082 26.8189 9.58337 27.1626 9.93772L26.7871 9.85081C26.8065 10.0824 26.874 10.2828 26.9817 10.4347C27.1312 10.6454 27.2499 10.6652 27.4263 10.8137C26.7877 11.0807 26.5018 10.8853 25.9202 10.7904C26.37 11.2069 26.53 11.4433 27.2964 11.6966C28.5055 12.0962 29.8483 11.6109 30.5806 10.59C30.7442 10.3619 30.8649 10.146 30.9713 9.84235C31.1302 9.38855 31.308 9.70471 31.6197 9.33296L31.12 9.32258C31.3775 9.16203 31.5173 9.14052 31.6606 8.88154C31.5011 8.89939 31.3192 8.93557 31.1581 8.92538C30.9678 8.91338 30.9336 8.82497 30.8446 8.7178C30.4366 8.22628 29.7764 8.18859 29.3604 8.53812C29.1092 8.74925 29.0746 8.84167 28.9478 9.2196C28.1485 8.90047 27.5716 8.42214 27.297 7.58569C26.7952 7.94971 26.8878 8.3538 27.0999 8.9414Z" fill="#010002"/>
<path fill-rule="evenodd" clip-rule="evenodd" d="M10.699 4.98313L10.7884 5.26954L11.139 5.24756L11.5522 5.25465L11.7124 8.15055L12.866 8.10054L12.7139 5.17761L13.4379 5.13936C13.5071 4.89943 13.4247 4.41952 13.4128 4.14736C13.1648 4.13836 12.885 4.20889 12.6498 4.14525C12.5963 3.3089 12.8423 3.098 13.6202 3.00201L13.5831 2.06451C11.806 2.02021 11.5053 2.68737 11.4822 4.2353C11.339 4.24842 11.1964 4.25737 11.0528 4.26464C10.9099 4.27184 10.7989 4.26464 10.6756 4.33315L10.699 4.98313V4.98313Z" fill="#010002"/>
<path fill-rule="evenodd" clip-rule="evenodd" d="M21.2856 24.7623C21.5583 24.8512 21.7267 24.5899 21.8678 24.4362C23.1126 23.0801 23.8756 20.5932 23.1756 18.2246C22.8566 17.1453 22.3039 16.2926 21.7412 15.6303C21.4484 15.2856 20.4039 14.4151 20.0374 14.3123C19.7625 14.2351 19.51 14.4597 19.5953 14.7578C19.6478 14.9414 19.9984 15.1 20.1538 15.204C20.3913 15.363 20.5252 15.4867 20.7238 15.6416C21.0474 15.894 21.4287 16.342 21.6747 16.7053C23.0871 18.7909 23.1374 21.5257 21.6413 23.5959C21.4551 23.8536 20.6679 24.5611 21.2856 24.7623V24.7623Z" fill="#010002"/>
<path fill-rule="evenodd" clip-rule="evenodd" d="M19.0121 23.115C19.3998 23.0522 20.9901 20.9144 20.2221 18.6837C19.9993 18.0365 19.5337 17.3977 19.1808 17.0531C18.9894 16.8662 18.2732 16.1989 17.9374 16.2864C17.7796 16.3275 17.661 16.4871 17.6828 16.685C17.7085 16.9173 18.2145 17.1686 18.3863 17.3223C20.0593 18.8191 20.1731 20.6978 18.7668 22.4291C18.3973 22.884 18.7238 23.1617 19.0121 23.115V23.115Z" fill="#010002"/>
<path fill-rule="evenodd" clip-rule="evenodd" d="M4.83915 22.3205C4.19284 22.4179 3.5549 22.5071 2.91036 22.6009C2.5882 22.6479 2.24062 22.6611 2.26903 23.0261C2.29977 23.4215 2.68614 23.3593 3.00442 23.3102C3.64073 23.2121 4.2721 23.1217 4.9119 23.0281C5.25886 22.9774 5.59138 22.9857 5.57356 22.6005C5.55566 22.214 5.17677 22.2696 4.83915 22.3205V22.3205Z" fill="#010002"/>
<path fill-rule="evenodd" clip-rule="evenodd" d="M4.71974 20.5745C4.06829 20.6713 3.43499 20.7574 2.7862 20.8533C2.43374 20.9055 2.07107 20.8886 2.0236 21.2028C1.96271 21.6059 2.32508 21.6471 2.65031 21.597C3.28768 21.499 3.91852 21.4086 4.55912 21.3143C4.89484 21.2648 5.25756 21.2865 5.31361 20.9686C5.38363 20.5715 5.03761 20.5272 4.71974 20.5745Z" fill="#010002"/>
<path fill-rule="evenodd" clip-rule="evenodd" d="M11.1391 5.24756L10.7885 5.26954L10.699 4.98312L10.7172 5.2766C10.8704 5.32815 11.0238 5.30824 11.1391 5.24756Z" fill="#010002"/>
</svg>
